<svg width="191" height="91" xmlns="http://www.w3.org/2000/svg"><g fill="none" fill-rule="evenodd"><path d="M13.624 33L8.76 12.456l-1.504-.8V9.928H17.4v1.728l-2.016.8 2.56 13.312h.192l3.744-15.84h4.832l4.352 15.936h.224l2.784-13.408-2.272-.8V9.928h6.88v1.728l-1.6.8L32.44 33h-5.632L23 18.44h-.224L19.256 33h-5.632zM44.088 7.976c1.664 0 3.104 1.312 3.104 3.008s-1.44 2.976-3.104 2.976c-1.728 0-3.072-1.28-3.072-2.976s1.344-3.008 3.072-3.008zm-4.736 8.192l7.2-1.024.608.064v15.616l1.792.8V33H39.48v-1.376l1.824-.8V18.312l-1.952-.768v-1.376zm10.56 15.424l1.824-.832V18.28l-1.92-.768v-1.344l6.976-1.024.704.064v2.048h.192c1.504-1.344 3.744-2.208 5.952-2.208 3.04 0 4.384 1.44 4.384 4.64V30.76l1.824.832V33h-9.28v-1.408l1.632-.736V20.648c0-1.76-.768-2.464-2.208-2.464-.928 0-1.728.256-2.4.544v12.128l1.6.736V33h-9.28v-1.408zm22.976-13.76h-2.496v-1.504l2.496-.864v-3.136l5.824-.928v4.064h3.872v2.368h-3.872v10.304c0 1.792.512 2.528 2.432 2.528.576 0 1.248-.032 1.632-.096v1.664c-1.024.608-2.72 1.12-4.704 1.12-3.488 0-5.184-1.536-5.184-5.312V17.832zm27.488 6.88h-10.4c.192 3.616 1.536 5.312 5.376 5.312 1.856 0 3.168-.384 4.416-1.024v1.6c-.96 1.312-3.392 2.88-6.784 2.88-5.952 0-8.992-3.584-8.992-9.312 0-5.6 3.328-9.088 8.704-9.088 5.056 0 7.68 2.528 7.68 9.184v.448zm-7.84-7.872c-1.632 0-2.656 1.792-2.656 6.112l4.96-.32c0-4.48-.768-5.792-2.304-5.792zm9.056-.672l7.008-1.024.576.064v3.968h.16c.928-2.88 2.4-4.224 4.416-4.224.32 0 .672.032.864.128v5.28c-.32-.096-.896-.128-1.44-.128-1.6 0-2.784.16-3.808.576v10.016l2.368.8V33h-10.048v-1.376l1.824-.8V18.312l-1.92-.768v-1.376z" fill="#121212"/><path d="M69.976 50.32c0 8.128-5.408 12.064-11.264 12.064-6.4 0-11.072-4.064-11.072-11.808 0-8.192 5.44-12.032 11.264-12.032 6.368 0 11.072 4 11.072 11.776zm-11.2-9.568c-2.592 0-3.808 2.112-3.808 9.632 0 7.808 1.088 9.792 3.872 9.792 2.592 0 3.744-2.048 3.744-9.6 0-7.936-1.152-9.824-3.808-9.824zm12.256-3.008l7.104-1.024.704.096V59.76l1.824.832V62H71.16v-1.408l1.824-.832V39.888l-1.952-.736v-1.408zm13.28 28.704c1.952 0 3.488-.768 4.32-3.04l.32-.864-6.592-15.872-1.312-.768v-1.44h9.472v1.44l-1.888.8 3.168 9.184h.128l3.328-9.152-1.952-.832v-1.44h5.952v1.44l-1.472.768L91.32 63.6c-1.568 4.128-3.296 5.536-5.984 5.536-1.056 0-2.048-.256-2.944-.864v-2.048c.64.128 1.28.224 1.92.224zm15.584-5.824l1.824-.8V47.312l-1.92-.768v-1.376l6.944-1.024.704.064v2.048h.192c1.504-1.344 3.168-2.208 5.44-2.208 2.016 0 3.264.608 3.936 2.24h.128c1.568-1.376 3.328-2.24 5.6-2.24 2.88 0 4.448 1.472 4.448 4.672v11.104l1.856.8V62h-9.024v-1.376l1.44-.8V49.616c0-1.76-.768-2.464-2.08-2.464-.736 0-1.472.256-2.08.512v12.16l1.44.8V62h-8.512v-1.376l1.472-.8V49.616c0-1.76-.672-2.464-2.048-2.464-.832 0-1.504.224-2.112.544v12.128l1.408.8V62h-9.056v-1.376zm48.672-7.904c0 6.88-3.776 9.696-8.096 9.696-1.376 0-2.496-.288-3.008-.576v4.8l2.08.768v1.44h-9.76v-1.44l1.824-.768v-19.2l-1.888-.928v-1.344l7.008-1.024.704.064v2.016h.192c.896-1.056 2.56-2.176 4.928-2.176 3.36 0 6.016 2.304 6.016 8.672zm-6.112.64c0-4.8-1.152-6.176-3.136-6.176-.736 0-1.376.224-1.856.48v12.224c.416.32.96.576 1.76.576 2.016 0 3.232-1.856 3.232-7.104zm11.936-16.384c1.664 0 3.104 1.312 3.104 3.008s-1.44 2.976-3.104 2.976c-1.728 0-3.072-1.28-3.072-2.976s1.344-3.008 3.072-3.008zm-4.736 8.192l7.2-1.024.608.064v15.616l1.792.8V62h-9.472v-1.376l1.824-.8V47.312l-1.952-.768v-1.376zm19.232 17.248c-5.696 0-8.544-3.776-8.544-9.248 0-5.6 3.584-9.12 9.28-9.12 2.272 0 4.512.256 5.568.608v5.376H172.6l-1.024-3.968c-.384-.16-.864-.224-1.472-.224-2.464 0-3.872 2.144-3.872 6.72 0 4.48 1.76 6.464 5.152 6.464 1.76 0 2.976-.384 3.936-.928v1.6c-1.152 1.44-3.168 2.72-6.432 2.72zm16.8-11.936c3.68.896 5.248 2.528 5.248 5.824 0 3.904-2.336 6.112-7.552 6.112-2.048 0-4.288-.32-6.048-.96l-.192-4.576h2.112l1.344 3.04c.704.384 1.632.608 2.72.608 1.984 0 2.88-.864 2.88-2.208 0-1.152-.608-1.76-2.4-2.176l-1.184-.288c-3.744-.928-5.472-2.72-5.472-5.984 0-3.424 2.272-5.856 7.264-5.856 2.048 0 4.032.224 5.376.736v4.288h-2.112l-.928-2.752c-.512-.256-1.248-.384-2.208-.384-1.728 0-2.592.768-2.592 2.048 0 1.152.608 1.728 2.56 2.24l1.184.288z" fill="#121212"/><path d="M25.056 85.2l-.448 4.8H8.832v-2.816l4.672-4.448c3.616-3.424 5.056-6.432 5.056-9.952 0-3.552-1.184-5.568-3.904-5.568l-4.928 7.168h-.544l.16-6.688c1.856-.736 4.448-1.12 7.232-1.12 5.28 0 8.288 2.144 8.288 6.304 0 4.128-2.752 6.88-8.512 9.92L12 85.104v.096h13.056zm11.264 5.184c-5.376 0-9.952-4.032-9.952-11.808 0-8.128 4.768-12.032 10.176-12.032 5.344 0 9.792 3.872 9.792 11.84 0 8-4.544 12-10.016 12zm.096-.576c2.304 0 3.072-3.648 3.072-11.168 0-7.936-.768-11.52-3.104-11.52-2.272 0-3.168 3.68-3.168 11.2 0 7.808.864 11.488 3.2 11.488zM47.904 90v-.544l3.328-.96V69.84l-3.296.768v-.704l6.656-3.168h2.496v21.76l3.2.96V90H47.904zm30.784-6.048c0 4.032-3.104 6.496-8.768 6.496-5.76 0-8.448-2.208-8.448-5.792 0-3.168 2.432-5.088 5.536-5.632-2.848-1.792-4.512-3.712-4.512-6.432 0-3.712 2.816-6.048 7.872-6.048 5.472 0 7.712 2.144 7.712 4.992 0 2.944-2.432 4.448-5.28 5.024l.896.544c3.168 1.856 4.992 3.456 4.992 6.848zm-8-8.608l1.44.832c.96-1.12 1.6-2.592 1.6-4.608 0-2.944-1.248-4.416-3.424-4.416-2.144 0-3.296 1.408-3.296 3.648 0 2.176 1.568 3.328 3.68 4.544zm-4.704 9.088c0 3.232 1.376 5.408 4.128 5.408 2.4 0 3.872-1.6 3.872-4.16 0-2.272-1.536-3.36-3.456-4.512l-2.88-1.728c-1.056 1.056-1.664 2.848-1.664 4.992z" fill="#00b2ff"/><path d="M.5 1.364v31.152" stroke="#121212" stroke-linecap="square"/></g></svg>